<?xml version="1.0" encoding="UTF-8"?>
<svg xmlns="http://www.w3.org/2000/svg" viewBox="0 0 800 500" style="background: #f8f9fa; border-radius: 8px;">
  <defs>
    <linearGradient id="binGradient" x1="0%" y1="0%" x2="100%" y2="100%">
      <stop offset="0%" style="stop-color:#10b981"/>
      <stop offset="100%" style="stop-color:#059669"/>
    </linearGradient>
    <linearGradient id="activeGradient" x1="0%" y1="0%" x2="100%" y2="100%">
      <stop offset="0%" style="stop-color:#f59e0b"/>
      <stop offset="100%" style="stop-color:#d97706"/>
    </linearGradient>
    <linearGradient id="currentGradient" x1="0%" y1="0%" x2="100%" y2="100%">
      <stop offset="0%" style="stop-color:#ef4444"/>
      <stop offset="100%" style="stop-color:#dc2626"/>
    </linearGradient>
  </defs>
  
  <!-- Title -->
  <text x="400" y="30" text-anchor="middle" style="font-family: Arial, sans-serif; font-size: 20px; font-weight: bold; fill: #374151;">
    DLMM Bin Distribution &amp; Liquidity Concentration
  </text>
  
  <!-- Price Axis -->
  <line x1="80" y1="350" x2="720" y2="350" stroke="#6b7280" stroke-width="2"/>
  <text x="400" y="375" text-anchor="middle" style="font-family: Arial, sans-serif; font-size: 12px; fill: #6b7280;">Price Range →</text>
  
  <!-- Liquidity Axis -->
  <line x1="80" y1="350" x2="80" y2="80" stroke="#6b7280" stroke-width="2"/>
  <text x="25" y="215" text-anchor="middle" transform="rotate(-90 25 215)" style="font-family: Arial, sans-serif; font-size: 12px; fill: #6b7280;">Liquidity Amount →</text>
  
  <!-- Price Labels -->
  <text x="140" y="365" text-anchor="middle" style="font-family: Arial, sans-serif; font-size: 10px; fill: #6b7280;">$95</text>
  <text x="200" y="365" text-anchor="middle" style="font-family: Arial, sans-serif; font-size: 10px; fill: #6b7280;">$98</text>
  <text x="260" y="365" text-anchor="middle" style="font-family: Arial, sans-serif; font-size: 10px; fill: #6b7280;">$101</text>
  <text x="320" y="365" text-anchor="middle" style="font-family: Arial, sans-serif; font-size: 10px; fill: #6b7280;">$104</text>
  <text x="380" y="365" text-anchor="middle" style="font-family: Arial, sans-serif; font-size: 10px; fill: #6b7280;">$107</text>
  <text x="440" y="365" text-anchor="middle" style="font-family: Arial, sans-serif; font-size: 10px; fill: #6b7280;">$110</text>
  <text x="500" y="365" text-anchor="middle" style="font-family: Arial, sans-serif; font-size: 10px; fill: #6b7280;">$113</text>
  <text x="560" y="365" text-anchor="middle" style="font-family: Arial, sans-serif; font-size: 10px; fill: #6b7280;">$116</text>
  <text x="620" y="365" text-anchor="middle" style="font-family: Arial, sans-serif; font-size: 10px; fill: #6b7280;">$119</text>
  <text x="680" y="365" text-anchor="middle" style="font-family: Arial, sans-serif; font-size: 10px; fill: #6b7280;">$122</text>
  
  <!-- Bins (representing liquidity distribution) -->
  <!-- Lower prices (inactive bins) -->
  <rect x="125" y="330" width="15" height="20" fill="#e5e7eb"/>
  <rect x="145" y="325" width="15" height="25" fill="#d1d5db"/>
  <rect x="165" y="320" width="15" height="30" fill="#d1d5db"/>
  <rect x="185" y="315" width="15" height="35" fill="#9ca3af"/>
  
  <!-- Current price range (active bins with high liquidity) -->
  <rect x="205" y="200" width="15" height="150" fill="url(#binGradient)"/>
  <rect x="225" y="150" width="15" height="200" fill="url(#binGradient)"/>
  <rect x="245" y="120" width="15" height="230" fill="url(#activeGradient)"/>
  
  <!-- Current price marker -->
  <line x1="260" y1="80" x2="260" y2="350" stroke="url(#currentGradient)" stroke-width="3" stroke-dasharray="5,5"/>
  <circle cx="260" cy="100" r="8" fill="url(#currentGradient)"/>
  <text x="270" y="95" style="font-family: Arial, sans-serif; font-size: 10px; font-weight: bold; fill: #dc2626;">Current Price</text>
  <text x="270" y="108" style="font-family: Arial, sans-serif; font-size: 10px; fill: #dc2626;">$101.00</text>
  
  <!-- More active bins -->
  <rect x="265" y="130" width="15" height="220" fill="url(#activeGradient)"/>
  <rect x="285" y="160" width="15" height="190" fill="url(#binGradient)"/>
  <rect x="305" y="180" width="15" height="170" fill="url(#binGradient)"/>
  
  <!-- Higher prices (inactive bins) -->
  <rect x="325" y="315" width="15" height="35" fill="#9ca3af"/>
  <rect x="345" y="320" width="15" height="30" fill="#d1d5db"/>
  <rect x="365" y="325" width="15" height="25" fill="#d1d5db"/>
  <rect x="385" y="330" width="15" height="20" fill="#e5e7eb"/>
  
  <!-- Traditional AMM comparison (faded background) -->
  <rect x="450" y="100" width="280" height="250" rx="5" fill="rgba(107, 114, 128, 0.1)" stroke="#d1d5db" stroke-dasharray="3,3"/>
  <text x="590" y="120" text-anchor="middle" style="font-family: Arial, sans-serif; font-size: 12px; font-weight: bold; fill: #6b7280;">
    Traditional AMM
  </text>
  <text x="590" y="135" text-anchor="middle" style="font-family: Arial, sans-serif; font-size: 10px; fill: #6b7280;">
    Liquidity spread across all prices
  </text>
  
  <!-- Uniform distribution bars -->
  <rect x="460" y="320" width="8" height="25" fill="#d1d5db"/>
  <rect x="475" y="320" width="8" height="25" fill="#d1d5db"/>
  <rect x="490" y="320" width="8" height="25" fill="#d1d5db"/>
  <rect x="505" y="320" width="8" height="25" fill="#d1d5db"/>
  <rect x="520" y="320" width="8" height="25" fill="#d1d5db"/>
  <rect x="535" y="320" width="8" height="25" fill="#d1d5db"/>
  <rect x="550" y="320" width="8" height="25" fill="#d1d5db"/>
  <rect x="565" y="320" width="8" height="25" fill="#d1d5db"/>
  <rect x="580" y="320" width="8" height="25" fill="#d1d5db"/>
  <rect x="595" y="320" width="8" height="25" fill="#d1d5db"/>
  <rect x="610" y="320" width="8" height="25" fill="#d1d5db"/>
  <rect x="625" y="320" width="8" height="25" fill="#d1d5db"/>
  <rect x="640" y="320" width="8" height="25" fill="#d1d5db"/>
  <rect x="655" y="320" width="8" height="25" fill="#d1d5db"/>
  <rect x="670" y="320" width="8" height="25" fill="#d1d5db"/>
  <rect x="685" y="320" width="8" height="25" fill="#d1d5db"/>
  <rect x="700" y="320" width="8" height="25" fill="#d1d5db"/>
  
  <!-- Efficiency Comparison -->
  <rect x="460" y="280" width="260" height="30" rx="3" fill="#fef3c7" stroke="#f59e0b"/>
  <text x="590" y="295" text-anchor="middle" style="font-family: Arial, sans-serif; font-size: 11px; fill: #92400e;">
    Capital Efficiency: ~12%
  </text>
  <text x="590" y="305" text-anchor="middle" style="font-family: Arial, sans-serif; font-size: 9px; fill: #92400e;">
    Most liquidity is unused
  </text>
  
  <!-- DLMM Efficiency -->
  <rect x="120" y="280" width="260" height="30" rx="3" fill="#d1fae5" stroke="#10b981"/>
  <text x="250" y="295" text-anchor="middle" style="font-family: Arial, sans-serif; font-size: 11px; fill: #065f46;">
    Capital Efficiency: up to 4000x
  </text>
  <text x="250" y="305" text-anchor="middle" style="font-family: Arial, sans-serif; font-size: 9px; fill: #065f46;">
    Concentrated where trading happens
  </text>
  
  <!-- Legend -->
  <g>
    <rect x="100" y="390" width="15" height="15" fill="url(#currentGradient)"/>
    <text x="120" y="402" style="font-family: Arial, sans-serif; font-size: 10px; fill: #374151;">Current Price Bin</text>
    
    <rect x="220" y="390" width="15" height="15" fill="url(#activeGradient)"/>
    <text x="240" y="402" style="font-family: Arial, sans-serif; font-size: 10px; fill: #374151;">Active Bins (High Liquidity)</text>
    
    <rect x="380" y="390" width="15" height="15" fill="url(#binGradient)"/>
    <text x="400" y="402" style="font-family: Arial, sans-serif; font-size: 10px; fill: #374151;">Active Bins (Medium Liquidity)</text>
    
    <rect x="560" y="390" width="15" height="15" fill="#d1d5db"/>
    <text x="580" y="402" style="font-family: Arial, sans-serif; font-size: 10px; fill: #374151;">Inactive Bins (No Liquidity)</text>
  </g>
  
  <!-- Key Benefits -->
  <rect x="50" y="420" width="700" height="60" rx="5" fill="#eff6ff" stroke="#3b82f6"/>
  <text x="400" y="440" text-anchor="middle" style="font-family: Arial, sans-serif; font-size: 12px; font-weight: bold; fill: #1d4ed8;">
    🎯 DLMM Benefits: Higher Capital Efficiency • Better Price Discovery • Lower Slippage • Active Fee Earning
  </text>
  <text x="400" y="455" text-anchor="middle" style="font-family: Arial, sans-serif; font-size: 10px; fill: #1e40af;">
    Perfect for: Range Orders • Arbitrage Strategies • Professional Market Making • MEV Protection
  </text>
  <text x="400" y="468" text-anchor="middle" style="font-family: Arial, sans-serif; font-size: 9px; fill: #3730a3;">
    Learn more: docs/dlmm-sdk/concentrated-liquidity
  </text>
</svg>